<svg xmlns="http://www.w3.org/2000/svg" xmlns:xlink="http://www.w3.org/1999/xlink" width="500" zoomAndPan="magnify" viewBox="0 0 375 225" height="300" preserveAspectRatio="xMidYMid meet" version="1.0"><defs><g/><clipPath id="7ad2d10013"><path d="M 6 9 L 165 9 L 165 219 L 6 219 Z M 6 9 " clip-rule="nonzero"/></clipPath><clipPath id="e5303ce4de"><path d="M -52.6875 71.496094 L 82.992188 -19.734375 L 190.546875 140.214844 L 54.867188 231.449219 Z M -52.6875 71.496094 " clip-rule="nonzero"/></clipPath><clipPath id="152e044f48"><path d="M -52.6875 71.496094 L 82.992188 -19.734375 L 190.546875 140.214844 L 54.867188 231.449219 Z M -52.6875 71.496094 " clip-rule="nonzero"/></clipPath><clipPath id="ae0ada0e1d"><path d="M 56 93 L 92 93 L 92 133 L 56 133 Z M 56 93 " clip-rule="nonzero"/></clipPath><clipPath id="ccbb995781"><path d="M -52.6875 71.496094 L 82.992188 -19.734375 L 190.546875 140.214844 L 54.867188 231.449219 Z M -52.6875 71.496094 " clip-rule="nonzero"/></clipPath><clipPath id="e7b72e850a"><path d="M -52.6875 71.496094 L 82.992188 -19.734375 L 190.546875 140.214844 L 54.867188 231.449219 Z M -52.6875 71.496094 " clip-rule="nonzero"/></clipPath><clipPath id="9c15ce31f6"><path d="M 72 138 L 79 138 L 79 145 L 72 145 Z M 72 138 " clip-rule="nonzero"/></clipPath><clipPath id="aef338769f"><path d="M -52.6875 71.496094 L 82.992188 -19.734375 L 190.546875 140.214844 L 54.867188 231.449219 Z M -52.6875 71.496094 " clip-rule="nonzero"/></clipPath><clipPath id="76c268aa6a"><path d="M -52.6875 71.496094 L 82.992188 -19.734375 L 190.546875 140.214844 L 54.867188 231.449219 Z M -52.6875 71.496094 " clip-rule="nonzero"/></clipPath><clipPath id="73f3eaa030"><path d="M 99 101 L 106 101 L 106 109 L 99 109 Z M 99 101 " clip-rule="nonzero"/></clipPath><clipPath id="ff7c7a88fb"><path d="M -52.6875 71.496094 L 82.992188 -19.734375 L 190.546875 140.214844 L 54.867188 231.449219 Z M -52.6875 71.496094 " clip-rule="nonzero"/></clipPath><clipPath id="0ed24f9c49"><path d="M -52.6875 71.496094 L 82.992188 -19.734375 L 190.546875 140.214844 L 54.867188 231.449219 Z M -52.6875 71.496094 " clip-rule="nonzero"/></clipPath></defs><g clip-path="url(#7ad2d10013)"><g clip-path="url(#e5303ce4de)"><g clip-path="url(#152e044f48)"><path fill="#7ba9c4" d="M 58.421875 157.003906 C 55.667969 154.441406 55.277344 150.203125 57.550781 147.203125 L 64.734375 137.558594 L 59.84375 133.9375 C 48.414062 125.445312 46.035156 109.214844 54.5625 97.777344 C 63.085938 86.339844 79.335938 83.925781 90.765625 92.421875 L 95.65625 96.039062 L 102.84375 86.394531 C 105.09375 83.367188 109.261719 82.523438 112.496094 84.40625 L 164.328125 114.449219 L 120.824219 36.996094 C 118.296875 32.503906 112.792969 30.628906 108.050781 32.617188 L 92.914062 39.007812 L 89.675781 31.332031 C 82.089844 13.34375 61.3125 4.898438 43.269531 12.484375 C 25.246094 20.097656 16.75 40.878906 24.300781 58.890625 L 27.539062 66.5625 L 12.402344 72.953125 C 7.628906 74.957031 5.128906 80.207031 6.578125 85.15625 L 43.378906 210.84375 C 45.132812 216.839844 51.746094 219.96875 57.535156 217.546875 L 102.765625 198.5 Z M 98.789062 52.925781 C 99.753906 55.222656 98.671875 57.867188 96.371094 58.832031 C 94.074219 59.800781 91.429688 58.722656 90.464844 56.429688 C 89.503906 54.132812 90.585938 51.492188 92.886719 50.523438 C 95.152344 49.578125 97.828125 50.632812 98.789062 52.925781 Z M 32.707031 55.375 C 27.097656 41.988281 33.402344 26.515625 46.828125 20.832031 C 60.25 15.148438 75.714844 21.464844 81.371094 34.867188 L 84.609375 42.539062 L 35.945312 63.050781 Z M 35.863281 74.558594 C 38.164062 73.59375 40.808594 74.667969 41.769531 76.960938 C 42.730469 79.257812 41.648438 81.898438 39.351562 82.867188 C 37.050781 83.832031 34.410156 82.757812 33.445312 80.464844 C 32.453125 78.1875 33.535156 75.546875 35.863281 74.558594 Z M 35.863281 74.558594 " fill-opacity="1" fill-rule="nonzero"/></g></g></g><g clip-path="url(#ae0ada0e1d)"><g clip-path="url(#ccbb995781)"><g clip-path="url(#e7b72e850a)"><path fill="#7ba9c4" d="M 86.816406 97.707031 C 78.320312 91.386719 66.199219 93.160156 59.84375 101.714844 C 53.496094 110.214844 55.246094 122.320312 63.792969 128.652344 L 68.6875 132.273438 L 91.726562 101.355469 Z M 86.816406 97.707031 " fill-opacity="1" fill-rule="nonzero"/></g></g></g><g clip-path="url(#9c15ce31f6)"><g clip-path="url(#aef338769f)"><g clip-path="url(#76c268aa6a)"><path fill="#7ba9c4" d="M 72.910156 139.550781 C 71.824219 140.992188 72.109375 143.074219 73.601562 144.167969 C 75.042969 145.246094 77.128906 144.960938 78.222656 143.464844 C 79.308594 142.023438 79.023438 139.941406 77.53125 138.847656 C 76.089844 137.769531 74.003906 138.054688 72.910156 139.550781 Z M 72.910156 139.550781 " fill-opacity="1" fill-rule="nonzero"/></g></g></g><g clip-path="url(#73f3eaa030)"><g clip-path="url(#ff7c7a88fb)"><g clip-path="url(#0ed24f9c49)"><path fill="#7ba9c4" d="M 105.195312 107.234375 C 106.277344 105.789062 105.996094 103.707031 104.503906 102.617188 C 103.058594 101.535156 100.976562 101.824219 99.878906 103.316406 C 98.785156 104.8125 99.078125 106.84375 100.570312 107.933594 C 102.042969 108.996094 104.128906 108.707031 105.195312 107.234375 Z M 105.195312 107.234375 " fill-opacity="1" fill-rule="nonzero"/></g></g></g><g fill="#000000" fill-opacity="1"><g transform="translate(93.942031, 158.605978)"><g><path d="M 22.09375 -8.8125 C 22.09375 -7.007812 21.632812 -5.410156 20.71875 -4.015625 C 19.8125 -2.617188 18.5 -1.535156 16.78125 -0.765625 C 15.0625 0.00390625 13.046875 0.390625 10.734375 0.390625 C 8.796875 0.390625 7.171875 0.253906 5.859375 -0.015625 C 4.554688 -0.285156 3.195312 -0.753906 1.78125 -1.421875 L 1.78125 -8.40625 C 3.28125 -7.644531 4.832031 -7.046875 6.4375 -6.609375 C 8.050781 -6.179688 9.535156 -5.96875 10.890625 -5.96875 C 12.054688 -5.96875 12.910156 -6.171875 13.453125 -6.578125 C 13.992188 -6.984375 14.265625 -7.503906 14.265625 -8.140625 C 14.265625 -8.535156 14.15625 -8.878906 13.9375 -9.171875 C 13.71875 -9.472656 13.363281 -9.773438 12.875 -10.078125 C 12.394531 -10.378906 11.113281 -11 9.03125 -11.9375 C 7.132812 -12.800781 5.710938 -13.632812 4.765625 -14.4375 C 3.828125 -15.25 3.128906 -16.175781 2.671875 -17.21875 C 2.210938 -18.257812 1.984375 -19.492188 1.984375 -20.921875 C 1.984375 -23.597656 2.953125 -25.679688 4.890625 -27.171875 C 6.835938 -28.671875 9.507812 -29.421875 12.90625 -29.421875 C 15.914062 -29.421875 18.976562 -28.722656 22.09375 -27.328125 L 19.703125 -21.28125 C 16.984375 -22.53125 14.640625 -23.15625 12.671875 -23.15625 C 11.648438 -23.15625 10.910156 -22.972656 10.453125 -22.609375 C 9.992188 -22.253906 9.765625 -21.8125 9.765625 -21.28125 C 9.765625 -20.71875 10.054688 -20.207031 10.640625 -19.75 C 11.234375 -19.300781 12.832031 -18.484375 15.4375 -17.296875 C 17.9375 -16.171875 19.671875 -14.960938 20.640625 -13.671875 C 21.609375 -12.390625 22.09375 -10.769531 22.09375 -8.8125 Z M 22.09375 -8.8125 "/></g></g></g><g fill="#000000" fill-opacity="1"><g transform="translate(117.377412, 158.605978)"><g><path d="M 27.984375 0 L 20.109375 0 L 20.109375 -11.828125 L 11.015625 -11.828125 L 11.015625 0 L 3.140625 0 L 3.140625 -29 L 11.015625 -29 L 11.015625 -18.25 L 20.109375 -18.25 L 20.109375 -29 L 27.984375 -29 Z M 27.984375 0 "/></g></g></g><g fill="#000000" fill-opacity="1"><g transform="translate(148.48581, 158.605978)"><g><path d="M 30.265625 -14.546875 C 30.265625 -9.660156 29.066406 -5.945312 26.671875 -3.40625 C 24.285156 -0.875 20.785156 0.390625 16.171875 0.390625 C 11.617188 0.390625 8.128906 -0.882812 5.703125 -3.4375 C 3.273438 -5.988281 2.0625 -9.703125 2.0625 -14.578125 C 2.0625 -19.398438 3.265625 -23.082031 5.671875 -25.625 C 8.085938 -28.175781 11.597656 -29.453125 16.203125 -29.453125 C 20.816406 -29.453125 24.3125 -28.1875 26.6875 -25.65625 C 29.070312 -23.132812 30.265625 -19.429688 30.265625 -14.546875 Z M 10.3125 -14.546875 C 10.3125 -8.929688 12.265625 -6.125 16.171875 -6.125 C 18.148438 -6.125 19.617188 -6.804688 20.578125 -8.171875 C 21.535156 -9.535156 22.015625 -11.660156 22.015625 -14.546875 C 22.015625 -17.441406 21.53125 -19.578125 20.5625 -20.953125 C 19.59375 -22.335938 18.140625 -23.03125 16.203125 -23.03125 C 12.273438 -23.03125 10.3125 -20.203125 10.3125 -14.546875 Z M 10.3125 -14.546875 "/></g></g></g><g fill="#000000" fill-opacity="1"><g transform="translate(180.843292, 158.605978)"><g><path d="M 24.1875 -19.78125 C 24.1875 -16.539062 23.226562 -14.035156 21.3125 -12.265625 C 19.40625 -10.503906 16.691406 -9.625 13.171875 -9.625 L 10.96875 -9.625 L 10.96875 0 L 3.140625 0 L 3.140625 -29 L 13.171875 -29 C 16.835938 -29 19.585938 -28.195312 21.421875 -26.59375 C 23.265625 -25 24.1875 -22.726562 24.1875 -19.78125 Z M 10.96875 -16.015625 L 12.390625 -16.015625 C 13.566406 -16.015625 14.503906 -16.34375 15.203125 -17 C 15.898438 -17.65625 16.25 -18.566406 16.25 -19.734375 C 16.25 -21.691406 15.164062 -22.671875 13 -22.671875 L 10.96875 -22.671875 Z M 10.96875 -16.015625 "/></g></g></g><g fill="#000000" fill-opacity="1"><g transform="translate(206.499285, 158.605978)"><g><path d="M 20.921875 0 L 19.5 -5.4375 L 10.078125 -5.4375 L 8.609375 0 L 0 0 L 9.46875 -29.125 L 19.921875 -29.125 L 29.5 0 Z M 17.875 -11.859375 L 16.625 -16.625 C 16.332031 -17.675781 15.976562 -19.039062 15.5625 -20.71875 C 15.144531 -22.40625 14.867188 -23.613281 14.734375 -24.34375 C 14.617188 -23.664062 14.382812 -22.550781 14.03125 -21 C 13.6875 -19.457031 12.910156 -16.410156 11.703125 -11.859375 Z M 17.875 -11.859375 "/></g></g></g><g fill="#000000" fill-opacity="1"><g transform="translate(235.981878, 158.605978)"><g><path d="M 3.140625 -29 L 13.25 -29 C 17.1875 -29 20.109375 -28.410156 22.015625 -27.234375 C 23.929688 -26.066406 24.890625 -24.25 24.890625 -21.78125 C 24.890625 -20.15625 24.472656 -18.765625 23.640625 -17.609375 C 22.804688 -16.460938 21.710938 -15.722656 20.359375 -15.390625 L 20.359375 -15.1875 C 22.148438 -14.71875 23.445312 -13.925781 24.25 -12.8125 C 25.0625 -11.695312 25.46875 -10.253906 25.46875 -8.484375 C 25.46875 -5.859375 24.476562 -3.785156 22.5 -2.265625 C 20.519531 -0.753906 17.828125 0 14.421875 0 L 3.140625 0 Z M 10.96875 -17.875 L 13.328125 -17.875 C 14.453125 -17.875 15.320312 -18.101562 15.9375 -18.5625 C 16.550781 -19.03125 16.859375 -19.71875 16.859375 -20.625 C 16.859375 -22.25 15.628906 -23.0625 13.171875 -23.0625 L 10.96875 -23.0625 Z M 10.96875 -12.140625 L 10.96875 -6.046875 L 13.734375 -6.046875 C 16.171875 -6.046875 17.390625 -7.078125 17.390625 -9.140625 C 17.390625 -10.109375 17.0625 -10.847656 16.40625 -11.359375 C 15.757812 -11.878906 14.8125 -12.140625 13.5625 -12.140625 Z M 10.96875 -12.140625 "/></g></g></g><g fill="#000000" fill-opacity="1"><g transform="translate(263.342983, 158.605978)"><g><path d="M 3.140625 0 L 3.140625 -29 L 11.015625 -29 L 11.015625 0 Z M 3.140625 0 "/></g></g></g><g fill="#000000" fill-opacity="1"><g transform="translate(277.479565, 158.605978)"><g><path d="M 3.140625 0 L 3.140625 -29 L 10.96875 -29 L 10.96875 -6.328125 L 22.140625 -6.328125 L 22.140625 0 Z M 3.140625 0 "/></g></g></g><g fill="#000000" fill-opacity="1"><g transform="translate(301.113216, 158.605978)"><g><path d="M 3.140625 0 L 3.140625 -29 L 11.015625 -29 L 11.015625 0 Z M 3.140625 0 "/></g></g></g><g fill="#000000" fill-opacity="1"><g transform="translate(315.249798, 158.605978)"><g><path d="M 15.921875 0 L 8.09375 0 L 8.09375 -22.59375 L 1.015625 -22.59375 L 1.015625 -29 L 22.984375 -29 L 22.984375 -22.59375 L 15.921875 -22.59375 Z M 15.921875 0 "/></g></g></g><g fill="#000000" fill-opacity="1"><g transform="translate(339.240333, 158.605978)"><g><path d="M 13.484375 -18.25 L 18.484375 -29 L 26.984375 -29 L 17.4375 -11.328125 L 17.4375 0 L 9.546875 0 L 9.546875 -11.09375 L 0 -29 L 8.53125 -29 Z M 13.484375 -18.25 "/></g></g></g><g fill="#000000" fill-opacity="1"><g transform="translate(122.939959, 197.00565)"><g><path d="M 4.015625 -17.109375 C 6.046875 -19.035156 8.546875 -20 11.515625 -20 C 14.492188 -20 17 -19.035156 19.03125 -17.109375 C 21.0625 -15.179688 22.078125 -12.796875 22.078125 -9.953125 C 22.078125 -7.109375 21.0625 -4.710938 19.03125 -2.765625 C 17 -0.828125 14.492188 0.140625 11.515625 0.140625 C 8.546875 0.140625 6.046875 -0.828125 4.015625 -2.765625 C 1.984375 -4.710938 0.96875 -7.109375 0.96875 -9.953125 C 0.96875 -12.796875 1.984375 -15.179688 4.015625 -17.109375 Z M 11.546875 -16.984375 C 9.578125 -16.984375 7.890625 -16.304688 6.484375 -14.953125 C 5.078125 -13.597656 4.375 -11.929688 4.375 -9.953125 C 4.375 -7.984375 5.082031 -6.3125 6.5 -4.9375 C 7.914062 -3.5625 9.597656 -2.875 11.546875 -2.875 C 13.503906 -2.875 15.175781 -3.5625 16.5625 -4.9375 C 17.945312 -6.3125 18.640625 -7.984375 18.640625 -9.953125 C 18.640625 -11.929688 17.945312 -13.597656 16.5625 -14.953125 C 15.175781 -16.304688 13.503906 -16.984375 11.546875 -16.984375 Z M 11.546875 -16.984375 "/></g></g></g><g fill="#000000" fill-opacity="1"><g transform="translate(145.979656, 197.00565)"><g><path d="M 19.890625 0 L 16.59375 0 L 5.96875 -14.28125 L 5.96875 0 L 2.625 0 L 2.625 -19.921875 L 5.921875 -19.921875 L 16.59375 -5.609375 L 16.59375 -19.921875 L 19.890625 -19.921875 Z M 19.890625 0 "/></g></g></g><g fill="#000000" fill-opacity="1"><g transform="translate(168.507375, 197.00565)"><g><path d="M 5.96875 -3.046875 L 14.59375 -3.046875 L 14.59375 0 L 2.625 0 L 2.625 -19.921875 L 5.96875 -19.921875 Z M 5.96875 -3.046875 "/></g></g></g><g fill="#000000" fill-opacity="1"><g transform="translate(183.696521, 197.00565)"><g><path d="M 5.96875 0 L 2.625 0 L 2.625 -19.921875 L 5.96875 -19.921875 Z M 5.96875 0 "/></g></g></g><g fill="#000000" fill-opacity="1"><g transform="translate(192.286627, 197.00565)"><g><path d="M 19.890625 0 L 16.59375 0 L 5.96875 -14.28125 L 5.96875 0 L 2.625 0 L 2.625 -19.921875 L 5.921875 -19.921875 L 16.59375 -5.609375 L 16.59375 -19.921875 L 19.890625 -19.921875 Z M 19.890625 0 "/></g></g></g><g fill="#000000" fill-opacity="1"><g transform="translate(214.814346, 197.00565)"><g><path d="M 16.84375 -16.90625 L 5.96875 -16.90625 L 5.96875 -11.53125 L 15.703125 -11.53125 L 15.703125 -8.5 L 5.96875 -8.5 L 5.96875 -3.015625 L 17.1875 -3.015625 L 17.1875 0 L 2.625 0 L 2.625 -19.921875 L 16.84375 -19.921875 Z M 16.84375 -16.90625 "/></g></g></g><g fill="#000000" fill-opacity="1"><g transform="translate(233.473668, 197.00565)"><g/></g></g><g fill="#000000" fill-opacity="1"><g transform="translate(240.812241, 197.00565)"><g><path d="M 9.15625 -20.0625 C 11.738281 -20.0625 14.066406 -19.378906 16.140625 -18.015625 L 14.734375 -15.046875 C 12.703125 -16.285156 10.757812 -16.90625 8.90625 -16.90625 C 7.894531 -16.90625 7.097656 -16.722656 6.515625 -16.359375 C 5.941406 -15.992188 5.65625 -15.476562 5.65625 -14.8125 C 5.65625 -14.15625 5.921875 -13.59375 6.453125 -13.125 C 6.984375 -12.664062 7.644531 -12.328125 8.4375 -12.109375 C 9.238281 -11.890625 10.101562 -11.613281 11.03125 -11.28125 C 11.96875 -10.945312 12.832031 -10.59375 13.625 -10.21875 C 14.425781 -9.851562 15.085938 -9.273438 15.609375 -8.484375 C 16.128906 -7.703125 16.390625 -6.753906 16.390625 -5.640625 C 16.390625 -3.890625 15.691406 -2.492188 14.296875 -1.453125 C 12.898438 -0.410156 11.09375 0.109375 8.875 0.109375 C 7.351562 0.109375 5.878906 -0.171875 4.453125 -0.734375 C 3.035156 -1.304688 1.796875 -2.078125 0.734375 -3.046875 L 2.1875 -5.953125 C 3.195312 -5.015625 4.300781 -4.296875 5.5 -3.796875 C 6.707031 -3.296875 7.851562 -3.046875 8.9375 -3.046875 C 10.113281 -3.046875 11.023438 -3.257812 11.671875 -3.6875 C 12.328125 -4.113281 12.65625 -4.707031 12.65625 -5.46875 C 12.65625 -6.144531 12.390625 -6.710938 11.859375 -7.171875 C 11.328125 -7.640625 10.660156 -7.984375 9.859375 -8.203125 C 9.066406 -8.421875 8.207031 -8.6875 7.28125 -9 C 6.351562 -9.3125 5.488281 -9.644531 4.6875 -10 C 3.894531 -10.351562 3.234375 -10.914062 2.703125 -11.6875 C 2.171875 -12.46875 1.90625 -13.410156 1.90625 -14.515625 C 1.90625 -16.203125 2.566406 -17.546875 3.890625 -18.546875 C 5.222656 -19.554688 6.976562 -20.0625 9.15625 -20.0625 Z M 9.15625 -20.0625 "/></g></g></g><g fill="#000000" fill-opacity="1"><g transform="translate(258.504452, 197.00565)"><g><path d="M 16.21875 -16.90625 L 9.90625 -16.90625 L 9.90625 0 L 6.546875 0 L 6.546875 -16.90625 L 0.25 -16.90625 L 0.25 -19.921875 L 16.21875 -19.921875 Z M 16.21875 -16.90625 "/></g></g></g><g fill="#000000" fill-opacity="1"><g transform="translate(274.973565, 197.00565)"><g><path d="M 4.015625 -17.109375 C 6.046875 -19.035156 8.546875 -20 11.515625 -20 C 14.492188 -20 17 -19.035156 19.03125 -17.109375 C 21.0625 -15.179688 22.078125 -12.796875 22.078125 -9.953125 C 22.078125 -7.109375 21.0625 -4.710938 19.03125 -2.765625 C 17 -0.828125 14.492188 0.140625 11.515625 0.140625 C 8.546875 0.140625 6.046875 -0.828125 4.015625 -2.765625 C 1.984375 -4.710938 0.96875 -7.109375 0.96875 -9.953125 C 0.96875 -12.796875 1.984375 -15.179688 4.015625 -17.109375 Z M 11.546875 -16.984375 C 9.578125 -16.984375 7.890625 -16.304688 6.484375 -14.953125 C 5.078125 -13.597656 4.375 -11.929688 4.375 -9.953125 C 4.375 -7.984375 5.082031 -6.3125 6.5 -4.9375 C 7.914062 -3.5625 9.597656 -2.875 11.546875 -2.875 C 13.503906 -2.875 15.175781 -3.5625 16.5625 -4.9375 C 17.945312 -6.3125 18.640625 -7.984375 18.640625 -9.953125 C 18.640625 -11.929688 17.945312 -13.597656 16.5625 -14.953125 C 15.175781 -16.304688 13.503906 -16.984375 11.546875 -16.984375 Z M 11.546875 -16.984375 "/></g></g></g><g fill="#000000" fill-opacity="1"><g transform="translate(298.013261, 197.00565)"><g><path d="M 15.25 0 L 11.609375 -6.03125 C 11.421875 -6.007812 11.117188 -6 10.703125 -6 L 5.96875 -6 L 5.96875 0 L 2.625 0 L 2.625 -19.921875 L 10.703125 -19.921875 C 13.242188 -19.921875 15.210938 -19.328125 16.609375 -18.140625 C 18.015625 -16.953125 18.71875 -15.273438 18.71875 -13.109375 C 18.71875 -11.523438 18.363281 -10.179688 17.65625 -9.078125 C 16.945312 -7.972656 15.925781 -7.164062 14.59375 -6.65625 L 19.0625 0 Z M 5.96875 -9.015625 L 10.703125 -9.015625 C 13.921875 -9.015625 15.53125 -10.351562 15.53125 -13.03125 C 15.53125 -15.613281 13.921875 -16.90625 10.703125 -16.90625 L 5.96875 -16.90625 Z M 5.96875 -9.015625 "/></g></g></g><g fill="#000000" fill-opacity="1"><g transform="translate(318.578326, 197.00565)"><g><path d="M 16.84375 -16.90625 L 5.96875 -16.90625 L 5.96875 -11.53125 L 15.703125 -11.53125 L 15.703125 -8.5 L 5.96875 -8.5 L 5.96875 -3.015625 L 17.1875 -3.015625 L 17.1875 0 L 2.625 0 L 2.625 -19.921875 L 16.84375 -19.921875 Z M 16.84375 -16.90625 "/></g></g></g></svg>